<svg width="185" height="40" viewBox="0 0 185 40" fill="none" xmlns="http://www.w3.org/2000/svg">
<path d="M79.9678 31.1045L78.1582 35.4131C77.546 36.8581 76.8218 37.9989 76.0137 38.7773C75.1778 39.5825 73.9237 40 72.2529 40H67.1562V35.0801H72.0586L73.8135 30.9385L64.2031 8.89453H70.749L76.9883 23.8779H77.127L77.0996 23.8496L83.2002 8.86719H89.5215L79.9678 31.1045ZM143.03 8.86719L133.476 31.1045L131.666 35.4131C131.053 36.8581 130.329 37.9989 129.521 38.7773C128.686 39.5825 127.432 40 125.76 40H120.663V35.0801H125.565L127.32 30.9385L117.711 8.89453H124.257L130.495 23.8779H130.635L134.173 15.1768V14.9824H132.612V8.86719H143.03ZM154.673 8.4502C157.012 8.4502 158.99 8.89562 160.662 9.78516L160.606 9.8125C162.305 10.7019 163.585 11.9532 164.477 13.6211C165.368 15.261 165.814 17.2341 165.814 19.541V21.626H148.907C149.158 23.2935 149.798 24.5445 150.801 25.4062C151.804 26.2679 153.503 26.7129 154.812 26.7129C156.121 26.7129 157.152 26.4907 157.932 26.0459C158.712 25.6012 159.241 24.9337 159.575 24.0166H165.73C165.258 26.3793 164.032 28.2424 162.138 29.6045C160.243 30.9389 157.264 31.6054 154.868 31.6055C152.472 31.6055 150.384 31.1321 148.602 30.1875C146.819 29.2425 145.454 27.8806 144.479 26.1572C143.504 24.406 143.03 22.3208 143.03 19.958C143.03 17.5955 143.504 15.5383 144.45 13.8428C145.397 12.0916 146.735 10.7854 148.462 9.86816C150.217 8.92312 152.333 8.45021 154.673 8.4502ZM51.6406 8.4502C54.9555 8.4502 57.4906 9.2006 59.2178 10.6738C60.9726 12.1471 61.8633 14.3161 61.8633 17.1514V25.0732H64.7598V31.1611H58.5205V27.5195H56.9609C56.1815 28.798 55.1509 29.7988 53.8701 30.5215C52.5881 31.2167 51.6683 31.5498 49.0498 31.5498C46.4325 31.5497 44.3713 30.9104 42.8955 29.6592C41.4187 28.3805 40.667 26.8239 40.667 24.6279C40.6671 22.4321 41.4463 20.7362 42.9785 19.541C44.5108 18.3459 46.7107 17.7627 49.5791 17.7627H55.959V16.9004C55.9588 14.5101 54.1472 13.3145 51.6406 13.3145C49.1341 13.3145 47.6298 14.1771 47.1006 15.9004H40.9736C41.4752 13.4542 42.6165 11.5917 44.4268 10.3408C46.238 9.09001 48.326 8.45023 51.6406 8.4502ZM33.4248 31.1318H27.1572L20.6123 13.8984H20.4727L14.2334 31.1318H7.93848L3.39844 15.1494V14.9824H0V8.89551H8.07812L11.3926 21.3486H11.5869L14.7344 11.0908V10.8965H13.1748V4.80859H24.5117L29.8594 21.3486H29.999L34.0088 6.22656V6.05957H28.4668V0H42.3379L33.4248 31.1318ZM106.625 4.80859H101.165V8.89551H106.18V13.7041H101.249V31.1318H95.0938V13.7041H91.1094V8.89551H95.1484V4.91992C95.1485 3.25222 95.5951 2.00099 96.4863 1.22266C97.3776 0.416686 98.6309 1.7239e-05 100.246 0H106.625V4.80859ZM115.594 26.3242H118.296V31.1318H114.507C112.891 31.1318 111.638 30.7153 110.747 29.9092C109.856 29.131 109.41 27.8806 109.41 26.2129V0H115.594V26.3242ZM184.615 14.9824H181.941C180.326 14.9825 179.073 15.3992 178.182 16.2051C177.29 16.9834 176.844 18.2347 176.844 19.9023V31.1318H170.8V14.9824H167.765V8.89453H174.003V13.2588H175.563C176.148 11.7024 177.095 10.5625 178.377 9.78418C179.658 9.03395 181.106 8.64459 182.721 8.64453H184.615V14.9824ZM49.8857 21.8486C47.6584 21.8487 46.5441 22.6548 46.5439 24.3223C46.5439 25.1283 46.8506 25.7682 47.4629 26.2129C48.1038 26.6576 48.828 26.8799 49.998 26.8799C51.1672 26.8799 52.1977 26.6572 53.0889 26.2402C53.98 25.8234 54.6769 25.2681 55.2061 24.5732C55.7353 23.8505 55.9863 23.0438 55.9863 22.1543V21.8486H49.8857ZM154.729 13.3145C153.225 13.3145 151.999 13.6767 151.023 14.3994C150.077 15.0944 149.463 16.1504 149.13 17.54H159.965C159.77 16.1504 159.213 15.0944 158.322 14.3994C157.431 13.6768 156.233 13.3145 154.729 13.3145Z" fill="black"/>
</svg>
