<svg xmlns="http://www.w3.org/2000/svg" width="103" height="19" viewBox="0 0 103 19" fill="none">
<path d="M6.44 18.288C5.224 18.288 4.136 18.08 3.176 17.664C2.232 17.248 1.48 16.64 0.92 15.84C0.376 15.04 0.0960001 14.072 0.08 12.936H3.512C3.528 13.432 3.656 13.88 3.896 14.28C4.136 14.68 4.464 15 4.88 15.24C5.312 15.464 5.824 15.576 6.416 15.576C6.928 15.576 7.368 15.496 7.736 15.336C8.12 15.16 8.416 14.92 8.624 14.616C8.832 14.312 8.936 13.952 8.936 13.536C8.936 13.056 8.816 12.656 8.576 12.336C8.352 12.016 8.032 11.744 7.616 11.52C7.216 11.296 6.744 11.096 6.2 10.92C5.672 10.728 5.112 10.528 4.52 10.32C3.192 9.888 2.176 9.312 1.472 8.592C0.784 7.872 0.44 6.92 0.44 5.736C0.44 4.728 0.68 3.864 1.16 3.144C1.656 2.424 2.336 1.872 3.2 1.488C4.064 1.104 5.048 0.912 6.152 0.912C7.288 0.912 8.28 1.112 9.128 1.512C9.992 1.896 10.672 2.456 11.168 3.192C11.68 3.928 11.944 4.792 11.96 5.784H8.504C8.488 5.416 8.376 5.072 8.168 4.752C7.976 4.416 7.704 4.152 7.352 3.96C7 3.752 6.584 3.648 6.104 3.648C5.688 3.632 5.304 3.696 4.952 3.84C4.616 3.984 4.344 4.2 4.136 4.488C3.944 4.76 3.848 5.104 3.848 5.52C3.848 5.92 3.944 6.256 4.136 6.528C4.344 6.8 4.624 7.04 4.976 7.248C5.328 7.44 5.744 7.624 6.224 7.8C6.704 7.96 7.224 8.128 7.784 8.304C8.616 8.592 9.384 8.936 10.088 9.336C10.792 9.72 11.352 10.224 11.768 10.848C12.184 11.472 12.392 12.296 12.392 13.32C12.392 14.2 12.16 15.016 11.696 15.768C11.232 16.52 10.56 17.128 9.68 17.592C8.816 18.056 7.736 18.288 6.44 18.288ZM16.4844 18L12.9324 5.904H16.1244L18.4764 15.72L17.8764 15.696L20.5644 5.904H24.1644L26.8524 15.696L26.2284 15.72L28.6044 5.904H31.7964L28.2444 18H24.8844L22.0284 7.92H22.7004L19.8444 18H16.4844ZM32.9079 18V5.904H36.1479V18H32.9079ZM34.5399 4.248C33.9639 4.248 33.4839 4.08 33.0999 3.744C32.7319 3.392 32.5479 2.952 32.5479 2.424C32.5479 1.896 32.7319 1.464 33.0999 1.128C33.4839 0.776 33.9639 0.599999 34.5399 0.599999C35.1319 0.599999 35.6119 0.776 35.9799 1.128C36.3639 1.464 36.5559 1.896 36.5559 2.424C36.5559 2.952 36.3639 3.392 35.9799 3.744C35.6119 4.08 35.1319 4.248 34.5399 4.248ZM39.0138 18V4.824C39.0138 3.816 39.1818 3.016 39.5178 2.424C39.8538 1.832 40.3338 1.4 40.9578 1.128C41.5978 0.855999 42.3418 0.719999 43.1898 0.719999H44.6778V3.48H43.6698C43.1578 3.48 42.7898 3.584 42.5658 3.792C42.3578 3.984 42.2538 4.328 42.2538 4.824V18H39.0138ZM37.3578 8.616V5.904H44.8698V8.616H37.3578ZM51.8561 18C51.0081 18 50.2641 17.872 49.6241 17.616C49.0001 17.344 48.5121 16.904 48.1601 16.296C47.8081 15.672 47.6321 14.824 47.6321 13.752V8.616H45.5681V5.904H47.6321L47.9921 2.616H50.8721V5.904H54.0641V8.616H50.8721V13.8C50.8721 14.344 50.9921 14.72 51.2321 14.928C51.4721 15.136 51.8801 15.24 52.4561 15.24H54.0401V18H51.8561ZM63.4389 18.288C61.7589 18.288 60.3109 17.928 59.0949 17.208C57.8949 16.472 56.9669 15.456 56.3109 14.16C55.6709 12.848 55.3509 11.336 55.3509 9.624C55.3509 7.912 55.6709 6.4 56.3109 5.088C56.9669 3.776 57.8949 2.752 59.0949 2.016C60.3109 1.28 61.7589 0.912 63.4389 0.912C65.4709 0.912 67.1349 1.416 68.4309 2.424C69.7269 3.432 70.5349 4.856 70.8549 6.696H67.3269C67.1189 5.8 66.6789 5.104 66.0069 4.608C65.3509 4.096 64.4869 3.84 63.4149 3.84C62.4229 3.84 61.5669 4.08 60.8469 4.56C60.1429 5.024 59.5989 5.688 59.2149 6.552C58.8309 7.4 58.6389 8.424 58.6389 9.624C58.6389 10.808 58.8309 11.832 59.2149 12.696C59.5989 13.56 60.1429 14.224 60.8469 14.688C61.5669 15.152 62.4229 15.384 63.4149 15.384C64.4869 15.384 65.3509 15.152 66.0069 14.688C66.6629 14.208 67.0949 13.544 67.3029 12.696H70.8549C70.5349 14.44 69.7269 15.808 68.4309 16.8C67.1349 17.792 65.4709 18.288 63.4389 18.288ZM76.6696 18.288C75.6616 18.288 74.8296 18.128 74.1736 17.808C73.5176 17.472 73.0296 17.032 72.7096 16.488C72.4056 15.928 72.2536 15.312 72.2536 14.64C72.2536 13.904 72.4376 13.256 72.8056 12.696C73.1896 12.136 73.7576 11.696 74.5096 11.376C75.2776 11.056 76.2376 10.896 77.3896 10.896H80.3896C80.3896 10.304 80.3096 9.816 80.1496 9.432C79.9896 9.032 79.7416 8.736 79.4056 8.544C79.0696 8.352 78.6216 8.256 78.0616 8.256C77.4536 8.256 76.9336 8.392 76.5016 8.664C76.0856 8.92 75.8296 9.32 75.7336 9.864H72.5896C72.6696 9 72.9496 8.256 73.4296 7.632C73.9256 6.992 74.5736 6.496 75.3736 6.144C76.1896 5.792 77.0936 5.616 78.0856 5.616C79.2216 5.616 80.2056 5.808 81.0376 6.192C81.8696 6.576 82.5096 7.128 82.9576 7.848C83.4056 8.568 83.6296 9.456 83.6296 10.512V18H80.8936L80.5336 16.152C80.3576 16.472 80.1496 16.76 79.9096 17.016C79.6696 17.272 79.3896 17.496 79.0696 17.688C78.7496 17.88 78.3896 18.024 77.9896 18.12C77.5896 18.232 77.1496 18.288 76.6696 18.288ZM77.4376 15.792C77.8536 15.792 78.2216 15.72 78.5416 15.576C78.8776 15.416 79.1656 15.208 79.4056 14.952C79.6456 14.68 79.8296 14.376 79.9576 14.04C80.1016 13.688 80.1976 13.312 80.2456 12.912V12.888H77.7736C77.2776 12.888 76.8696 12.952 76.5496 13.08C76.2456 13.192 76.0216 13.36 75.8776 13.584C75.7336 13.808 75.6616 14.064 75.6616 14.352C75.6616 14.672 75.7336 14.936 75.8776 15.144C76.0216 15.352 76.2296 15.512 76.5016 15.624C76.7736 15.736 77.0856 15.792 77.4376 15.792ZM85.6921 18V5.904H88.5721L88.8841 8.136C89.1721 7.608 89.5321 7.16 89.9641 6.792C90.4121 6.424 90.9161 6.136 91.4761 5.928C92.0521 5.72 92.6841 5.616 93.3721 5.616V9.048H92.2681C91.7881 9.048 91.3401 9.104 90.9241 9.216C90.5241 9.328 90.1721 9.512 89.8681 9.768C89.5641 10.008 89.3321 10.344 89.1721 10.776C89.0121 11.208 88.9321 11.752 88.9321 12.408V18H85.6921ZM100 18C99.1524 18 98.4084 17.872 97.7684 17.616C97.1444 17.344 96.6564 16.904 96.3044 16.296C95.9524 15.672 95.7764 14.824 95.7764 13.752V8.616H93.7124V5.904H95.7764L96.1364 2.616H99.0164V5.904H102.208V8.616H99.0164V13.8C99.0164 14.344 99.1364 14.72 99.3764 14.928C99.6164 15.136 100.024 15.24 100.6 15.24H102.184V18H100Z" fill="#255048"/>
</svg>
